<svg xmlns="http://www.w3.org/2000/svg" width="1293" height="816" viewBox="0 0 1293 816" version="1.1">
	<path d="M 501.763 90.986 C 490.576 92.980, 478.253 98.483, 464.058 107.824 C 449.141 117.640, 426.535 138.049, 426.511 141.723 C 426.505 142.648, 425.510 143.651, 424.299 143.952 C 423.089 144.254, 419.264 147.700, 415.799 151.611 C 403.927 165.012, 399 170.867, 399 171.571 C 399 171.959, 397.313 174.158, 395.250 176.459 C 393.188 178.759, 390.719 181.959, 389.765 183.570 C 388.811 185.182, 385.551 189.875, 382.521 194 C 378.083 200.043, 363.497 221.134, 358.418 228.855 C 352.155 238.374, 346.639 247.482, 344.401 252 C 342.903 255.025, 340.674 258.850, 339.448 260.500 C 338.222 262.150, 335.061 267.550, 332.422 272.500 C 329.784 277.450, 326.644 282.850, 325.444 284.500 C 324.244 286.150, 322.965 288.756, 322.602 290.291 C 322.239 291.826, 321.505 292.812, 320.971 292.482 C 320.437 292.152, 320 292.584, 320 293.441 C 320 294.298, 319.550 295, 319 295 C 318.450 295, 318 295.620, 318 296.378 C 318 297.135, 317.325 298.315, 316.500 299 C 315.675 299.685, 315 301.288, 315 302.563 C 315 303.839, 314.617 305.119, 314.148 305.408 C 313.680 305.698, 312.485 308.087, 311.494 310.717 C 310.502 313.348, 308.479 317.300, 306.998 319.500 C 303.985 323.975, 292.892 345.081, 282.032 367 C 278.081 374.975, 274.401 382.332, 273.854 383.348 C 271.601 387.537, 263.851 403.266, 258.504 414.500 C 246.912 438.857, 246 440.820, 246 441.430 C 246 441.771, 242.447 449.352, 238.103 458.276 C 229.527 475.896, 222 491.950, 222 492.620 C 222 492.851, 220.200 496.847, 218 501.500 C 215.800 506.153, 214 510.153, 214 510.390 C 214 511.480, 192.407 557.339, 188.757 564 C 181.198 577.795, 181.735 577.057, 182.584 572.500 C 183.304 568.638, 183.531 565.979, 184.331 552 C 184.535 548.425, 185 544.565, 185.364 543.423 C 185.728 542.280, 186.243 538.230, 186.508 534.423 C 187.574 519.155, 188.100 514.582, 188.910 513.564 C 189.633 512.656, 190.386 507.680, 191.570 496 C 191.709 494.625, 192.315 490.504, 192.916 486.843 C 193.517 483.182, 193.735 479.473, 193.401 478.601 C 193.034 477.647, 193.430 476.772, 194.396 476.401 C 195.278 476.063, 196 474.908, 196 473.834 C 196 472.760, 195.550 472.160, 195 472.500 C 193.441 473.464, 193.826 470.317, 195.468 468.675 C 196.275 467.868, 196.907 465.923, 196.872 464.354 C 196.779 460.160, 198.622 449.302, 200.498 443 C 202.981 434.657, 203.330 432.102, 202.176 430.712 C 201.421 429.802, 201.640 428.286, 202.949 425.362 C 203.954 423.117, 204.559 420.146, 204.294 418.758 C 204.029 417.370, 204.304 415.930, 204.906 415.558 C 205.508 415.186, 206 413.580, 206 411.988 C 206 410.396, 206.528 407.936, 207.173 406.520 C 207.981 404.747, 208.024 403.624, 207.312 402.912 C 206.600 402.200, 206.688 400.729, 207.595 398.189 C 208.319 396.160, 208.932 392.768, 208.956 390.651 C 208.980 388.534, 209.739 385.245, 210.642 383.343 C 211.708 381.095, 211.942 379.542, 211.308 378.908 C 210.675 378.275, 211.014 375.930, 212.278 372.217 C 213.348 369.072, 214.661 363.350, 215.196 359.500 C 215.731 355.650, 216.322 351.600, 216.508 350.500 C 216.694 349.400, 217.129 345.800, 217.473 342.500 C 217.818 339.200, 218.494 334.925, 218.975 333 C 222.561 318.648, 224.270 283.577, 222.117 268.500 C 217.706 237.600, 213.543 226.524, 202.007 215 C 179.880 192.897, 149.451 196.508, 113 225.561 C 88.709 244.923, 62.798 281.335, 54.449 307.842 C 50.741 319.618, 48.090 338.278, 49.597 342 C 49.931 342.825, 50.379 345.525, 50.593 348 C 52.046 364.842, 67.283 385.794, 84.395 394.480 C 94.186 399.449, 106.989 400.741, 105.400 396.599 C 105.088 395.787, 103.408 394.815, 101.666 394.440 C 93.945 392.776, 83.643 384.593, 76.565 374.500 C 71.936 367.900, 67 357.415, 67 354.184 C 67 353.048, 66.606 351.875, 66.125 351.577 C 63.887 350.194, 64.464 329.332, 66.902 323.500 C 67.361 322.400, 68.736 318.350, 69.957 314.500 C 82.267 275.679, 133.015 226.092, 166.086 220.570 C 175.784 218.950, 181.292 232.823, 182.337 261.500 C 182.789 273.881, 180.287 301.380, 176.559 325 C 174.049 340.911, 170.976 359.486, 169.942 365 C 169.375 368.025, 168.273 374.550, 167.493 379.500 C 165.842 389.980, 163.167 404.675, 158.483 429 C 155.987 441.965, 152.200 463.217, 151.089 470.500 C 150.501 474.350, 149.779 478.625, 149.485 480 C 149.190 481.375, 148.758 485.200, 148.526 488.500 C 148.293 491.800, 147.611 497.200, 147.010 500.500 C 146.410 503.800, 145.746 508.075, 145.536 510 C 145.327 511.925, 144.421 519.800, 143.524 527.500 C 139.963 558.072, 138.602 594.243, 140.382 611 C 142.233 628.429, 147.131 636.821, 158.465 641.984 C 160.907 643.096, 163.296 644.707, 163.775 645.562 C 164.492 646.843, 165.098 646.913, 167.199 645.955 C 169.246 645.022, 170.223 645.091, 172.126 646.299 C 175.400 648.378, 178.121 647.105, 182.172 641.600 C 184.405 638.566, 186.255 637.065, 187.795 637.039 C 191.623 636.974, 195.272 632.516, 194.474 628.881 C 193.933 626.417, 194.297 625.297, 196.336 623.159 C 197.731 621.696, 199.833 618.250, 201.007 615.500 C 202.182 612.750, 203.698 609.825, 204.375 609 C 205.053 608.175, 206.676 604.350, 207.982 600.500 C 209.288 596.650, 212.729 588.344, 215.628 582.042 C 219.130 574.433, 220.582 570.202, 219.954 569.444 C 219.324 568.686, 219.676 567.698, 221.004 566.497 C 222.102 565.503, 223 564.037, 223 563.238 C 223 561.287, 229.018 548.695, 230.401 547.750 C 231.161 547.231, 231.054 546.713, 230.055 546.070 C 228.355 544.977, 230.694 539.502, 234.866 534.811 C 236.633 532.824, 237.111 531.389, 236.697 529.311 C 236.298 527.305, 236.845 525.466, 238.609 522.888 C 239.969 520.901, 241.349 517.526, 241.676 515.388 C 242.003 513.250, 242.821 510.825, 243.494 510 C 244.167 509.175, 245.213 506.475, 245.817 504 C 246.421 501.525, 248.277 496.846, 249.940 493.602 C 251.939 489.703, 252.764 486.907, 252.374 485.352 C 252.011 483.909, 252.225 483, 252.927 483 C 254.459 483, 257.540 475.608, 258.394 469.886 C 258.838 466.909, 259.954 464.452, 261.541 462.962 C 262.893 461.691, 264 459.816, 264 458.794 C 264 457.773, 264.654 456.686, 265.453 456.380 C 266.559 455.955, 266.650 455.412, 265.833 454.104 C 264.972 452.725, 265.375 451.713, 267.880 448.970 C 271.189 445.347, 271.617 444.017, 269.994 442.394 C 268.997 441.397, 272.484 433.430, 276.307 427.973 C 277.238 426.643, 278 424.843, 278 423.972 C 278 423.101, 279.148 420.839, 280.552 418.944 C 282.725 416.012, 282.883 415.358, 281.617 414.546 C 280.368 413.745, 280.687 412.832, 283.600 408.864 C 285.508 406.264, 287.167 402.757, 287.285 401.070 C 287.403 399.384, 287.864 398.003, 288.309 398.002 C 288.754 398.001, 288.848 397.563, 288.518 397.029 C 288.188 396.495, 289.027 395.093, 290.384 393.914 C 291.740 392.735, 292.627 391.190, 292.354 390.481 C 292.082 389.772, 293.445 386.308, 295.382 382.782 C 297.319 379.257, 298.841 375.501, 298.765 374.436 C 298.689 373.371, 299.835 370.101, 301.313 367.168 C 302.791 364.235, 304 361.276, 304 360.592 C 304 359.908, 305.125 358.292, 306.500 357 C 307.875 355.708, 309 353.672, 309 352.476 C 309 351.279, 310.435 348.320, 312.189 345.900 C 316.816 339.516, 316.929 336.423, 312.540 336.298 C 310.014 336.227, 309.278 336.561, 309.677 337.601 C 309.972 338.370, 309.787 339, 309.266 339 C 308.744 339, 307.063 341.363, 305.529 344.250 C 303.994 347.137, 301.411 351.621, 299.788 354.214 C 298.165 356.807, 297.143 359.423, 297.517 360.027 C 297.890 360.632, 297.512 361.885, 296.676 362.813 C 295.840 363.741, 294.846 365.743, 294.466 367.263 C 294.087 368.782, 293.253 370.357, 292.614 370.763 C 291.974 371.168, 289.938 374.425, 288.089 378 C 284.206 385.507, 283.442 386.524, 282.647 385.239 C 282.329 384.724, 282.954 383.354, 284.035 382.193 C 285.116 381.033, 286 379.614, 286 379.040 C 286 378.465, 287.317 375.409, 288.926 372.248 C 290.535 369.087, 293.535 363.125, 295.592 359 C 297.650 354.875, 300.401 349.793, 301.706 347.707 C 303.011 345.621, 308.842 334.483, 314.663 322.957 C 320.484 311.431, 325.566 302, 325.956 302 C 327.714 302, 327.859 303.499, 326.271 305.253 C 324.665 307.028, 322.227 311.475, 313.909 327.800 C 307.657 340.073, 313.770 337.026, 323.966 322.788 C 328.164 316.925, 329.039 314.387, 326.532 315.349 C 325.725 315.659, 324.798 315.481, 324.472 314.954 C 324.146 314.427, 324.960 313.585, 326.281 313.083 C 328.575 312.211, 335 303.495, 335 301.256 C 335 300.668, 334.093 300.424, 332.985 300.714 C 331.516 301.098, 331.121 300.848, 331.526 299.792 C 331.857 298.929, 331.248 297.969, 330.021 297.421 C 328.033 296.533, 328.112 296.259, 332.230 289.752 C 334.578 286.040, 339.100 278.615, 342.277 273.252 C 353.128 254.934, 361.617 242.506, 363.528 242.137 C 365.121 241.830, 364.964 242.366, 362.496 245.637 C 360.894 247.762, 359.227 249.650, 358.791 249.833 C 357.637 250.320, 357.821 254, 359 254 C 359.550 254, 360 254.498, 360 255.107 C 360 255.726, 359.271 255.934, 358.345 255.579 C 356.618 254.916, 352.002 258.440, 351.997 260.424 C 351.996 261.016, 350.358 264.200, 348.358 267.500 C 346.358 270.800, 343.945 274.850, 342.997 276.500 C 338.476 284.366, 334.295 290.705, 332.250 292.793 C 331.012 294.057, 330 295.520, 330 296.045 C 330 297.335, 331.722 297.258, 332.542 295.932 C 332.905 295.344, 333.799 295.093, 334.529 295.373 C 335.289 295.664, 337.482 293.877, 339.661 291.191 C 341.754 288.611, 343.820 286.347, 344.254 286.160 C 345.866 285.463, 348.082 279.833, 347.484 277.950 C 347.124 276.814, 347.330 276, 347.978 276 C 350.018 276, 354 271.124, 354 268.627 C 354 267.155, 355.811 264.042, 358.500 260.891 C 360.975 257.992, 363 254.722, 363 253.624 C 363 252.527, 364.731 249.575, 366.847 247.064 C 368.962 244.554, 371.449 241.037, 372.372 239.250 C 373.296 237.463, 374.441 236, 374.917 236 C 375.394 236, 376.066 234.875, 376.411 233.500 C 376.756 232.125, 377.480 231, 378.019 231 C 378.559 231, 379 230.433, 379 229.741 C 379 229.048, 379.916 227.909, 381.037 227.209 C 382.157 226.510, 382.944 225.314, 382.787 224.553 C 382.629 223.792, 384.567 220.768, 387.092 217.834 C 389.618 214.900, 394.574 208.674, 398.106 203.999 C 422.867 171.224, 448.984 145.225, 475 127.454 C 492.732 115.342, 499.775 112.131, 514.309 109.536 C 521.979 108.166, 522.205 108.186, 527.061 110.624 C 532.318 113.265, 535.134 117.095, 536 122.783 C 536.722 127.526, 538.227 126.909, 540.256 121.037 C 543.781 110.840, 537.237 98.035, 526 93.138 C 520.757 90.852, 508.578 89.771, 501.763 90.986 M 1169 172.086 C 1167.625 172.554, 1164.830 173.193, 1162.789 173.506 C 1152.592 175.072, 1134.309 201.006, 1121.551 232 C 1120.079 235.575, 1118.271 239.850, 1117.533 241.500 C 1116.795 243.150, 1115.743 246.075, 1115.196 248 C 1114.649 249.925, 1112.550 256, 1110.532 261.500 C 1107.117 270.808, 1100.730 288.918, 1098.012 297 C 1097.365 298.925, 1096.432 301.400, 1095.940 302.500 C 1094.770 305.115, 1092.100 313.245, 1090.534 318.961 C 1089.850 321.457, 1086.956 331.321, 1084.103 340.881 C 1081.250 350.441, 1078.285 360.791, 1077.513 363.881 C 1076.742 366.971, 1074.689 374.900, 1072.950 381.500 C 1071.211 388.100, 1068.995 396.875, 1068.025 401 C 1067.055 405.125, 1065.770 409.625, 1065.169 411 C 1064.569 412.375, 1063.161 418.079, 1062.042 423.676 C 1060.923 429.273, 1059.555 435.040, 1059.003 436.491 C 1058.452 437.943, 1058 440.060, 1058 441.197 C 1058 443.181, 1053.271 453.080, 1044.717 469 C 1037.959 481.577, 1027.404 496.411, 1020.980 502.358 C 1010.624 511.946, 1008.417 509.897, 1009.287 491.502 C 1009.601 484.849, 1010.299 478.302, 1010.837 476.953 C 1011.375 475.604, 1012.792 470, 1013.985 464.500 C 1015.178 459, 1016.522 453.375, 1016.971 452 C 1017.421 450.625, 1018.792 445.900, 1020.019 441.500 C 1023.446 429.202, 1032.773 401.237, 1036.027 393.500 C 1038.560 387.479, 1041 378.965, 1041 376.146 C 1041 368.577, 1025.079 359.011, 1020.840 364.033 C 1019.927 365.115, 1018.762 366, 1018.251 366 C 1016.472 366, 1005.671 390.356, 994.750 419 C 993.596 422.025, 991.685 426.750, 990.501 429.500 C 989.318 432.250, 987.508 436.525, 986.479 439 C 980.449 453.498, 963.659 484, 961.707 484 C 961.253 484, 961.160 484.450, 961.500 485 C 961.840 485.550, 961.641 486, 961.059 486 C 960.477 486, 959.987 486.563, 959.972 487.250 C 959.931 489.093, 946.621 504.500, 945.070 504.500 C 941.492 504.500, 943.756 476.529, 948.470 462.500 C 949.209 460.300, 951.433 453.100, 953.411 446.500 C 955.390 439.900, 957.711 432.475, 958.570 430 C 959.429 427.525, 961.640 421, 963.484 415.500 C 965.328 410, 968.898 399.910, 971.418 393.077 C 977.420 376.804, 977.316 374.432, 970.341 368.612 C 964.781 363.972, 959.527 362.690, 955.175 364.912 C 950.371 367.363, 948.089 369.980, 947.618 373.578 C 947.215 376.657, 946.278 379.298, 943.117 386.253 C 935.832 402.287, 925.222 432.530, 920.403 451 C 912.234 482.311, 911.897 503.956, 919.394 515.832 C 922.654 520.996, 929.797 527, 932.680 527 C 933.956 527, 935 527.414, 935 527.921 C 935 528.427, 936.241 529.114, 937.758 529.447 C 943.779 530.769, 955.293 522.131, 964.925 509.064 C 970.848 501.029, 981.794 482.669, 982.618 479.385 C 984.021 473.796, 985.247 475.867, 984.528 482.610 C 984.123 486.399, 983.294 489.810, 982.686 490.189 C 981.929 490.660, 982.120 491.475, 983.290 492.768 C 984.230 493.807, 985.003 495.522, 985.008 496.579 C 985.023 500.460, 988.890 511.085, 991.655 514.843 C 1000.893 527.400, 1010.999 529.811, 1021.058 521.860 C 1025.933 518.006, 1037 505.424, 1037 503.736 C 1037 503.254, 1038.358 500.886, 1040.018 498.473 C 1041.679 496.060, 1044.638 490.804, 1046.594 486.793 L 1050.152 479.500 1049.458 485.916 C 1049.077 489.445, 1048.368 493.717, 1047.883 495.410 C 1047.397 497.102, 1047 501.418, 1047 505 C 1047 508.582, 1046.520 513.085, 1045.934 515.007 C 1044.310 520.324, 1044.728 539.412, 1046.563 543.805 C 1048.397 548.195, 1051.779 552, 1053.846 552 C 1054.669 552, 1056.137 552.719, 1057.108 553.598 C 1059.326 555.605, 1060.577 554.863, 1061.331 551.096 C 1061.748 549.010, 1062.589 548.055, 1064.210 547.825 C 1065.863 547.590, 1066.588 546.735, 1066.816 544.750 C 1066.990 543.237, 1067.553 542, 1068.066 542 C 1069.337 542, 1069.250 536.335, 1067.942 533.892 C 1067.095 532.309, 1067.291 531.574, 1068.924 530.207 C 1070.819 528.622, 1077.614 508.479, 1078.446 501.981 C 1079.064 497.155, 1090.609 465.600, 1097.281 450.500 C 1110.817 419.865, 1124.705 397.862, 1138.461 385.257 C 1154.285 370.757, 1159.858 373.124, 1159.952 394.384 C 1159.978 400.370, 1159.581 406.895, 1159.069 408.884 C 1158.556 410.873, 1157.624 415.200, 1156.997 418.500 C 1156.370 421.800, 1154.717 427.650, 1153.322 431.500 C 1148.069 446.008, 1147.748 446.392, 1128.897 460.746 C 1101.706 481.449, 1084.555 498.522, 1079.176 510.239 C 1076.483 516.104, 1076.479 517.009, 1079.119 521.720 C 1086.453 534.801, 1093.706 539.296, 1107 538.997 C 1125.227 538.588, 1159.185 504.381, 1174.004 471.500 C 1175.243 468.750, 1177.306 464.317, 1178.587 461.649 C 1179.868 458.981, 1181.621 454.376, 1182.482 451.415 C 1184.370 444.920, 1186.196 443.609, 1211.567 430.530 C 1220.880 425.729, 1229.175 421.245, 1230 420.565 C 1230.825 419.886, 1235.479 417.127, 1240.342 414.434 C 1254.109 406.812, 1260.628 398, 1252.500 398 C 1250.575 398, 1249 397.550, 1249 397 C 1249 395.240, 1247.157 395.930, 1246.523 397.927 C 1245.709 400.491, 1241.471 402.883, 1226.772 409.078 C 1220.023 411.923, 1208.919 416.900, 1202.097 420.139 C 1195.275 423.377, 1189.563 425.896, 1189.403 425.737 C 1189.243 425.577, 1189.585 423.433, 1190.163 420.973 C 1191.707 414.395, 1191.320 395.531, 1189.496 388.500 C 1181.247 356.702, 1152.390 349.472, 1128.174 373.135 C 1117.379 383.685, 1098 411.685, 1098 416.734 C 1098 417.430, 1097.579 418, 1097.064 418 C 1095.400 418, 1106.018 382.847, 1110.159 374.645 C 1112.128 370.747, 1124.489 349.166, 1136.800 328.132 C 1148.285 308.511, 1164.611 276.750, 1171.042 261.514 C 1173.832 254.906, 1176.501 248.600, 1176.974 247.500 C 1180.330 239.702, 1184.438 224.704, 1188.121 206.805 C 1189.957 197.883, 1188.766 185.756, 1185.582 180.944 C 1181.272 174.432, 1173.815 170.448, 1169 172.086 M 1168.340 195.750 C 1160.911 203.719, 1145.396 235.254, 1139.929 253.500 C 1139.435 255.150, 1138.623 257.400, 1138.125 258.500 C 1137.627 259.600, 1136.700 262.525, 1136.065 265 C 1135.429 267.475, 1133.545 274, 1131.877 279.500 C 1130.209 285, 1127.932 292.650, 1126.817 296.500 C 1125.701 300.350, 1123.716 306.425, 1122.404 310 C 1121.092 313.576, 1119.820 317.851, 1119.577 319.500 C 1119.334 321.150, 1118.380 325.200, 1117.457 328.500 C 1116.533 331.800, 1115.691 334.950, 1115.584 335.500 C 1115.478 336.050, 1114.893 338.075, 1114.284 340 C 1113.675 341.925, 1112.422 346.200, 1111.498 349.500 C 1110.574 352.800, 1109.417 356.625, 1108.925 358 C 1107.702 361.422, 1108.325 360.448, 1120.129 340.500 C 1136.043 313.607, 1143.994 298.792, 1154.479 276.500 C 1161.895 260.731, 1163.299 257.166, 1169.633 238 C 1169.906 237.175, 1170.122 236.500, 1170.113 236.500 C 1170.105 236.500, 1170.538 234.700, 1171.075 232.500 C 1176.961 208.414, 1177.451 193, 1172.331 193 C 1171.546 193, 1169.751 194.238, 1168.340 195.750 M 952.751 198.677 C 951.342 200.087, 950.649 200.161, 948.414 199.143 C 942.382 196.394, 934.469 207.580, 926.320 230.375 C 924.919 234.294, 922.969 239.300, 921.987 241.500 C 919.661 246.708, 913.495 262.616, 910.359 271.500 C 908.999 275.350, 907.470 279.400, 906.959 280.500 C 906.449 281.600, 904.616 287, 902.886 292.500 C 901.156 298, 897.826 308.350, 895.485 315.500 C 893.145 322.650, 890.218 331.875, 888.983 336 C 887.747 340.125, 886.120 345.428, 885.368 347.785 C 884.615 350.142, 884 352.864, 884 353.835 C 884 354.806, 883.538 356.062, 882.973 356.627 C 882.409 357.191, 881.672 359.978, 881.335 362.819 C 880.553 369.420, 880.332 369.572, 867.921 372.003 C 856.540 374.232, 837.678 378.717, 834.500 379.951 C 833.400 380.378, 829.575 381.492, 826 382.427 C 819.731 384.066, 816.213 385.048, 811.081 386.593 C 808.977 387.227, 808.765 387.073, 809.450 385.411 C 810.539 382.768, 817.633 361.899, 820.126 354 C 821.255 350.425, 822.526 346.600, 822.951 345.500 C 824.469 341.567, 826 336.336, 826 335.080 C 826 334.377, 826.634 332.384, 827.409 330.651 C 828.184 328.918, 829.053 326.375, 829.340 325 C 829.627 323.625, 833.521 311.925, 837.993 299 C 848.432 268.825, 850.627 261.829, 851.938 254.537 C 853.018 248.534, 852.530 242.445, 850.887 241.430 C 850.399 241.129, 850 240.054, 850 239.041 C 850 236.799, 839.955 227.423, 835.629 225.627 C 828.370 222.614, 820.271 226.242, 815.599 234.601 C 812.685 239.815, 812.471 241.071, 814.199 242.799 C 816.194 244.794, 817.614 250.343, 816.809 253 C 814.277 261.356, 809.993 274.943, 809.085 277.500 C 807.296 282.536, 801.423 300.827, 797.526 313.500 C 795.497 320.100, 792.991 328.200, 791.957 331.500 C 790.924 334.800, 789.339 340.200, 788.435 343.500 C 787.531 346.800, 786.182 351.525, 785.436 354 C 784.690 356.475, 782.519 363.675, 780.611 370 C 775.474 387.035, 774 392.578, 774 394.865 C 774 397.342, 770.714 400.604, 767.375 401.442 C 766.039 401.777, 762.596 403.124, 759.723 404.434 C 746.968 410.253, 742.699 411.966, 739.421 412.581 L 735.919 413.238 736.078 405.869 C 736.493 386.636, 725.625 371.518, 710.754 370.642 C 708.379 370.502, 705.990 370.112, 705.445 369.775 C 703.239 368.412, 693.500 370.434, 693.490 372.258 C 693.483 373.422, 691.402 374.996, 687.306 376.933 C 679.768 380.498, 669.669 390.391, 666.311 397.500 C 665.012 400.250, 661.276 406.324, 658.009 410.998 C 650.745 421.390, 643.757 435.352, 639.774 447.434 C 638.130 452.420, 635.598 458.075, 634.147 460 C 631.728 463.209, 626.944 470.249, 624.500 474.196 C 613.585 491.823, 587.308 516.970, 571.318 525.091 C 551.204 535.306, 545.579 525.258, 552.653 491.751 C 554.477 483.109, 554.537 483.002, 557.500 482.998 C 570.512 482.979, 599.080 457.311, 611.476 434.500 C 624.429 410.665, 625.886 391.834, 615.575 381.522 C 611.334 377.282, 603.631 374, 597.917 374 C 590.432 374, 579.517 379.856, 569.454 389.271 C 536.401 420.195, 513.015 477.420, 518.481 514 C 520.626 528.354, 530.501 540.797, 545.517 548.066 C 553.770 552.060, 554.502 552.231, 561.454 551.785 C 578.731 550.676, 601.224 531.197, 627 495.024 C 628.925 492.323, 630.733 489.892, 631.017 489.623 C 631.301 489.354, 631.534 492.366, 631.535 496.317 C 631.538 510.761, 636.316 524.994, 643.645 532.390 C 648.620 537.412, 655.779 542, 658.637 542 C 659.872 542, 661.160 542.450, 661.500 543 C 662.553 544.704, 668.875 544.103, 673.290 541.879 C 694.399 531.247, 716.057 497.573, 728.918 455.389 C 730.613 449.828, 732 444.141, 732 442.750 C 732 437.341, 734.512 436.005, 746.500 435.034 C 752.550 434.544, 758.800 433.649, 760.389 433.044 C 761.977 432.439, 763.522 432.189, 763.821 432.487 C 764.324 432.991, 761.979 442.573, 758.434 454.500 C 757.617 457.250, 756.513 461.750, 755.983 464.500 C 755.452 467.250, 753.643 475.800, 751.964 483.500 C 748.486 499.451, 748.590 498.822, 746.993 513.357 C 745.364 528.184, 747.405 535.288, 755.865 544.250 C 759.521 548.122, 761.529 548.912, 762.247 546.759 C 762.544 545.867, 763.150 546.007, 764.402 547.259 C 765.359 548.217, 766.491 549, 766.916 549 C 768.045 549, 771 545.534, 771 544.210 C 771 543.587, 771.857 542.273, 772.905 541.289 C 774.872 539.442, 775.592 534.929, 776.499 518.746 C 776.738 514.482, 777.399 510.124, 777.967 509.062 C 778.535 508, 779 505.103, 779 502.625 C 779 500.146, 779.414 497.862, 779.919 497.550 C 780.425 497.238, 781.372 494.624, 782.025 491.741 C 784.488 480.871, 786.113 473.369, 786.853 469.463 C 787.274 467.243, 787.947 464.895, 788.348 464.246 C 788.750 463.596, 790.382 457.988, 791.976 451.782 C 793.569 445.577, 795.620 438.025, 796.534 435 C 797.447 431.975, 798.762 427.475, 799.457 425 C 800.923 419.776, 802.267 419.133, 834.915 408.055 C 844.587 404.773, 856.775 400.495, 862 398.549 C 867.225 396.602, 871.858 395.008, 872.295 395.005 C 873.282 394.999, 872.082 402.149, 870.879 403.450 C 870.395 403.972, 870 405.408, 870 406.641 C 870 407.874, 869.550 409.160, 869 409.500 C 868.450 409.840, 868 411.072, 868 412.238 C 868 414.444, 866.515 419.697, 864.675 424 C 864.087 425.375, 863.547 427.400, 863.474 428.500 C 863.152 433.380, 862.939 434.080, 861.960 433.475 C 861.285 433.058, 861.149 433.744, 861.572 435.429 C 861.930 436.857, 861.782 438.583, 861.242 439.263 C 860.703 439.943, 860.022 442.735, 859.729 445.467 C 859.436 448.199, 858.768 450.577, 858.244 450.752 C 857.720 450.927, 857.493 452.126, 857.740 453.418 C 857.986 454.709, 857.696 456.070, 857.094 456.442 C 856.492 456.814, 856 458.837, 856 460.937 C 856 463.037, 855.325 466.371, 854.500 468.346 C 853.675 470.320, 853 473.435, 853 475.268 C 853 477.101, 852.513 479.087, 851.918 479.682 C 851.322 480.278, 850.711 482.280, 850.560 484.132 C 850.409 485.985, 850.221 488.288, 850.142 489.250 C 850.064 490.212, 849.361 491, 848.581 491 C 847.434 491, 847.352 491.691, 848.153 494.591 C 849.296 498.733, 848.602 501.445, 846.595 500.675 C 845.734 500.344, 845.026 500.970, 844.732 502.321 C 844.471 503.519, 843.926 505.288, 843.522 506.250 C 842.956 507.596, 843.273 508, 844.893 508 C 847.366 508, 847.522 508.810, 845.581 511.581 C 844.633 512.934, 844.315 515.244, 844.622 518.537 C 844.981 522.371, 844.709 523.739, 843.401 524.696 C 842.056 525.679, 841.693 527.752, 841.591 535.011 C 841.501 541.502, 841.074 544.336, 840.098 544.939 C 839.119 545.545, 838.666 548.595, 838.502 555.703 C 838.376 561.159, 837.788 566.529, 837.195 567.636 C 836.602 568.743, 836.029 572.540, 835.922 576.074 C 835.798 580.148, 835.169 583.142, 834.204 584.254 C 832.981 585.664, 832.908 586.502, 833.832 588.532 C 835.882 593.030, 831.921 597.595, 825.838 597.744 C 820.902 597.864, 819.703 596.697, 822.200 594.200 C 824.057 592.343, 815.833 592.646, 813.441 594.523 C 811.632 595.941, 811.756 596.002, 815.250 595.411 C 818.211 594.911, 819 595.096, 819 596.292 C 819 597.581, 817.030 597.768, 805.750 597.548 C 785.859 597.162, 786.988 597.333, 787.262 594.750 L 787.500 592.500 764.500 592.749 C 748.470 592.922, 742.210 592.694, 743.842 591.997 C 745.131 591.446, 746.593 591.249, 747.092 591.557 C 747.592 591.866, 748.561 591.771, 749.247 591.348 C 749.932 590.924, 754.095 590.501, 758.497 590.408 C 771.362 590.136, 772.280 590.074, 777.244 589.147 C 779.844 588.661, 783.732 588.585, 785.884 588.979 C 790.621 589.845, 793.701 588.549, 791.942 586.430 C 791.299 585.656, 790.340 585.290, 789.810 585.618 C 788.840 586.217, 759.844 587.076, 744 586.976 C 739.325 586.946, 733.925 587.398, 732 587.979 C 728.932 588.905, 728.331 588.787, 727.128 587.018 C 726.373 585.908, 725.306 585, 724.756 585 C 724.197 585, 724.305 585.662, 725 586.500 C 726.076 587.797, 725.611 588, 721.557 588 C 718.978 588, 716.058 588.434, 715.068 588.964 C 713.878 589.600, 712.255 589.545, 710.285 588.801 C 708.197 588.013, 705.508 587.964, 701.322 588.639 C 698.033 589.168, 694.170 589.288, 692.738 588.905 C 690.856 588.402, 689.971 588.633, 689.546 589.740 C 689.067 590.988, 687.805 591.154, 682.729 590.635 C 676.992 590.048, 664.941 591.682, 662.111 593.431 C 661.545 593.781, 660.201 593.518, 659.125 592.846 C 657.579 591.881, 656.155 591.892, 652.334 592.901 C 649.676 593.603, 646.487 594.156, 645.250 594.130 C 636.090 593.940, 628.496 594.568, 626.564 595.677 C 625.188 596.466, 623.959 596.483, 622.314 595.733 C 620.723 595.008, 619.297 594.999, 617.750 595.704 C 616.513 596.267, 614.009 596.509, 612.186 596.241 C 610.197 595.949, 607.319 596.454, 604.991 597.504 C 602.786 598.498, 599.924 599.028, 598.365 598.729 C 596.855 598.441, 592.668 598.640, 589.060 599.171 C 585.452 599.703, 576.875 600.771, 570 601.544 C 563.125 602.318, 555.250 603.231, 552.500 603.572 C 549.750 603.914, 545.700 604.303, 543.500 604.438 C 541.300 604.573, 539.275 604.803, 539 604.948 C 538.725 605.093, 534.450 605.790, 529.500 606.496 C 502.692 610.319, 497.020 611.170, 492 612.117 C 488.975 612.688, 484.925 613.323, 483 613.528 C 474.073 614.480, 453.089 618.337, 435 622.351 C 423.699 624.859, 419.462 625.737, 405.500 628.465 C 398.115 629.908, 384.214 633.445, 380 634.953 C 378.625 635.445, 369.850 638.127, 360.500 640.913 C 351.150 643.699, 341.250 646.829, 338.500 647.869 C 320.513 654.669, 315.075 657.027, 303.077 663.226 C 281.756 674.241, 274.400 679.773, 263.765 692.788 C 258.242 699.546, 257.755 700.542, 257.633 705.315 C 257.505 710.302, 257.619 710.535, 260.625 711.422 C 262.965 712.112, 263.750 712.927, 263.750 714.669 C 263.750 717.355, 265.646 720, 267.573 720 C 268.303 720, 269.306 720.725, 269.802 721.611 C 270.440 722.751, 272.428 723.303, 276.602 723.498 C 284.001 723.843, 284.721 723.401, 281.825 720.295 L 279.500 717.802 283.374 714.437 C 285.505 712.587, 288.880 710.553, 290.874 709.918 C 292.868 709.283, 295.850 708.172, 297.500 707.449 C 299.150 706.727, 305 704.278, 310.500 702.009 C 316 699.740, 324.100 696.396, 328.500 694.578 C 332.900 692.761, 342.125 689.395, 349 687.099 C 355.875 684.804, 363.525 682.230, 366 681.381 C 368.475 680.531, 372.750 679.152, 375.500 678.316 C 378.250 677.479, 382.075 676.200, 384 675.474 C 385.925 674.747, 392.900 672.714, 399.500 670.955 C 406.100 669.197, 413.300 667.133, 415.500 666.369 C 420.430 664.656, 428.439 662.873, 432.670 662.547 C 434.414 662.413, 436.551 661.592, 437.419 660.723 C 438.288 659.855, 441.587 658.849, 444.749 658.488 C 450.272 657.859, 457.582 655.829, 461.236 653.911 C 462.191 653.410, 464.793 653, 467.019 653 C 469.244 653, 472.680 652.325, 474.654 651.500 C 476.629 650.675, 479.337 650, 480.672 650 C 482.007 650, 484.314 649.372, 485.800 648.605 C 487.285 647.838, 491.544 646.885, 495.264 646.487 C 498.984 646.089, 502.273 645.367, 502.573 644.882 C 502.873 644.397, 505.722 644, 508.905 644 C 512.161 644, 516.069 643.313, 517.839 642.430 C 519.570 641.567, 521.866 641.140, 522.943 641.482 C 524.019 641.824, 526.250 641.405, 527.900 640.552 C 529.551 639.698, 532.656 639, 534.801 639 C 538.657 639, 543.494 637.798, 547.631 635.812 C 548.804 635.249, 551.167 635.097, 552.882 635.474 C 555.276 636, 556.148 635.779, 556.629 634.524 C 557.146 633.176, 558.174 633.003, 562.463 633.539 C 566.460 634.038, 568.025 633.833, 569.203 632.654 C 570.048 631.810, 571.594 631.343, 572.640 631.616 C 573.685 631.889, 576.557 631.594, 579.020 630.960 C 581.484 630.326, 586.875 629.252, 591 628.575 C 595.125 627.897, 600.217 626.771, 602.316 626.072 C 604.415 625.373, 607.091 625.052, 608.264 625.359 C 609.437 625.665, 611.051 625.373, 611.852 624.708 C 612.652 624.044, 615.151 623.446, 617.404 623.381 C 625.593 623.142, 634.428 621.972, 635.402 620.998 C 635.951 620.449, 638.920 620, 642 620 C 645.080 620, 648.089 619.511, 648.687 618.913 C 649.451 618.149, 649.970 618.142, 650.431 618.888 C 650.832 619.536, 652.821 619.712, 655.544 619.339 C 658.887 618.881, 660 619.060, 660 620.055 C 660 620.886, 660.517 620.676, 661.382 619.492 C 662.389 618.115, 664.145 617.558, 667.845 617.440 C 670.639 617.352, 674.051 616.541, 675.427 615.640 C 678.560 613.587, 680.888 613.546, 681.650 615.529 C 682.153 616.841, 682.398 616.857, 683.368 615.641 C 684.100 614.724, 687.506 613.999, 693 613.589 C 697.675 613.241, 703.157 612.695, 705.183 612.376 C 708.615 611.836, 708.826 611.949, 708.281 614.032 C 707.518 616.950, 710.087 616.284, 711.479 613.203 C 712.778 610.330, 716.649 609.093, 722.338 609.735 C 724.893 610.023, 727.550 609.794, 728.242 609.226 C 730.764 607.157, 738.821 607.863, 737.478 610.036 C 736.674 611.336, 738.443 611.965, 740.048 610.949 C 741.133 610.263, 741.169 610.027, 740.191 610.015 C 736.863 609.976, 740.631 607.985, 745.173 607.383 C 749.005 606.874, 750.387 606.235, 750.763 604.797 C 751.068 603.630, 751.827 603.103, 752.713 603.443 C 753.511 603.750, 755.013 604, 756.050 604 C 757.317 604, 757.748 604.493, 757.362 605.500 C 756.932 606.619, 757.511 606.996, 759.643 606.985 C 763.095 606.966, 765.494 605.609, 764.609 604.176 C 764.166 603.460, 764.996 603.471, 767.231 604.210 C 771.169 605.512, 773.012 605.549, 784 604.545 C 788.675 604.118, 795.875 603.615, 800 603.427 C 804.125 603.239, 809.300 602.709, 811.500 602.249 C 813.700 601.789, 819.100 601.519, 823.500 601.649 C 834.592 601.976, 835.175 602.085, 833.929 603.585 C 832.117 605.768, 832.412 615.092, 834.327 616.163 C 835.247 616.678, 835.986 617.865, 835.970 618.800 C 835.942 620.369, 835.861 620.365, 834.920 618.750 C 832.421 614.459, 831.859 617.218, 832.477 630.750 C 832.823 638.313, 833.113 645.400, 833.122 646.500 C 833.178 652.886, 835.333 668.588, 836.231 669.143 C 836.814 669.503, 836.998 670.564, 836.638 671.500 C 835.676 674.008, 842.386 693.120, 846.559 699.760 C 852.332 708.943, 860.363 715.030, 866.953 715.218 C 870.702 715.324, 876.743 709.675, 877.612 705.250 C 878.376 701.359, 876.368 700.684, 875.408 704.509 C 874.607 707.700, 870.591 708.842, 867.086 706.875 C 864.484 705.415, 858.982 694.086, 858.405 689 C 858.248 687.625, 857.867 683.800, 857.556 680.500 C 857.246 677.200, 856.700 672.925, 856.342 671 C 855.984 669.075, 855.790 664.350, 855.910 660.500 C 856.150 652.796, 854.139 647.916, 851.995 651 C 851.422 651.825, 851.231 653.625, 851.571 655 C 851.911 656.375, 852.328 660.569, 852.497 664.319 C 852.665 668.070, 853.095 672.692, 853.451 674.591 C 854.029 677.674, 852.591 681, 850.680 681 C 849.474 681, 847.033 672.538, 847.177 668.858 C 847.277 666.306, 846.795 664.295, 845.919 663.610 C 843.208 661.489, 846.005 600.953, 848.811 601.015 C 851.495 601.075, 855.083 611.212, 852.898 612.563 C 852.431 612.852, 852.082 618.581, 852.124 625.294 C 852.166 632.007, 852.102 637.950, 851.982 638.500 C 851.226 641.955, 852.141 648, 853.421 648 C 855.354 648, 856.171 643.600, 856.066 633.761 C 855.892 617.496, 855.844 618, 857.583 618 C 858.794 618, 858.995 617.549, 858.364 616.250 C 855.705 610.779, 858.030 601.217, 862.392 599.682 C 863.096 599.434, 862.862 598.572, 861.750 597.317 C 860.788 596.231, 860 593.937, 860 592.220 L 860 589.097 874.250 589.100 C 892.052 589.104, 896.539 589.645, 894.921 591.595 C 894.001 592.703, 894.098 593, 895.378 593 C 896.270 593, 897 592.594, 897 592.098 C 897 590.832, 902.037 589.347, 904.826 589.790 C 906.142 589.999, 906.951 590.685, 906.688 591.370 C 906.419 592.072, 907.648 593.026, 909.612 593.641 C 912.254 594.468, 913 594.419, 913 593.418 C 913 592.712, 911.987 591.806, 910.750 591.405 C 908.601 590.708, 908.634 590.638, 911.480 589.862 C 915.173 588.855, 921.591 589.802, 923.059 591.571 C 923.786 592.447, 924.887 592.618, 926.327 592.080 C 927.522 591.634, 929.400 591.627, 930.500 592.064 C 931.600 592.502, 933.737 592.891, 935.250 592.930 C 938.103 593.003, 938.878 594.339, 936.809 595.618 C 936.154 596.023, 935.441 595.824, 935.226 595.177 C 935.010 594.530, 933.494 594, 931.858 594 C 930.221 594, 929.141 594.419, 929.457 594.931 C 929.774 595.443, 929.525 596.176, 928.905 596.559 C 927.833 597.221, 914.180 598.357, 911 598.048 C 910.175 597.968, 907.250 597.758, 904.500 597.582 C 901.750 597.405, 895.155 596.952, 889.844 596.575 C 882.907 596.082, 879.984 596.217, 879.465 597.056 C 878.054 599.340, 881.555 600.116, 890.681 599.545 C 896.687 599.168, 900.090 599.337, 900.520 600.032 C 900.881 600.617, 904.168 601.076, 907.838 601.053 C 911.502 601.030, 917.139 601.004, 920.363 600.995 C 925.968 600.980, 932 598.766, 932 596.725 C 932 596.262, 932.457 596.165, 933.016 596.510 C 933.575 596.856, 933.793 597.526, 933.500 598 C 933.207 598.474, 933.452 599.161, 934.044 599.527 C 934.736 599.955, 934.474 600.668, 933.310 601.525 C 931.591 602.790, 931.589 602.891, 933.263 603.540 C 934.232 603.916, 935.582 603.794, 936.263 603.269 C 937.354 602.427, 942.165 602.428, 959 603.274 C 962.909 603.470, 963.500 603.237, 963.500 601.500 C 963.500 599.729, 962.755 599.473, 957 599.265 C 953.425 599.135, 949.150 598.835, 947.500 598.596 C 945.850 598.358, 943.889 598.126, 943.143 598.081 C 942.360 598.034, 942.030 597.365, 942.362 596.500 C 942.734 595.530, 942.330 594.989, 941.219 594.970 C 939.642 594.942, 939.637 594.859, 941.148 593.977 C 943.219 592.768, 959.197 594.770, 960.208 596.365 C 960.721 597.174, 961.260 597.140, 962.158 596.242 C 963.703 594.697, 969 594.600, 969 596.117 C 969 596.739, 969.881 597.003, 970.992 596.712 C 972.870 596.221, 985.847 597.413, 990.750 598.527 C 994.007 599.267, 993.511 600.738, 989.750 601.495 C 987.962 601.855, 985.668 602.385, 984.651 602.673 C 983.149 603.099, 982.927 602.804, 983.469 601.099 C 984.170 598.890, 981.741 597.991, 980.500 600 C 980.160 600.550, 978.082 601, 975.882 601 C 973.470 601, 972.127 600.603, 972.500 600 C 972.873 599.396, 971.510 599, 969.059 599 C 966.827 599, 965 599.450, 965 600 C 965 600.550, 965.752 601, 966.671 601 C 967.590 601, 969.179 601.757, 970.201 602.682 C 971.433 603.797, 974.155 604.453, 978.280 604.628 C 981.701 604.773, 986.075 605.241, 988 605.669 C 989.925 606.097, 993.975 606.529, 997 606.629 C 1005.830 606.922, 1015.422 608.145, 1016.450 609.109 C 1016.972 609.599, 1019.301 610, 1021.624 610 C 1023.947 610, 1028.244 610.474, 1031.174 611.053 C 1043.652 613.521, 1045.963 614.012, 1055 616.113 C 1065.476 618.550, 1073 621.393, 1073 622.916 C 1073 624.498, 1064.903 629.498, 1060 630.944 C 1050.238 633.822, 1048.463 634.441, 1047.500 635.307 C 1046.166 636.506, 1053.565 635.311, 1063 632.804 C 1074.568 629.730, 1081 625.384, 1081 620.642 C 1081 616.160, 1071.305 609.796, 1059.500 606.527 C 1056.200 605.614, 1051.925 604.418, 1050 603.869 C 1043.147 601.917, 1034.378 599.930, 1026 598.433 C 1021.325 597.597, 1015.250 596.457, 1012.500 595.899 C 1009.750 595.341, 1002.550 594.238, 996.500 593.448 C 990.450 592.657, 984.150 591.823, 982.500 591.593 C 974.339 590.457, 967.851 589.871, 959.880 589.550 C 955.066 589.356, 950.677 588.919, 950.127 588.578 C 949.576 588.238, 943.810 587.754, 937.313 587.503 C 930.816 587.252, 919.650 586.766, 912.500 586.425 C 905.350 586.083, 897.475 585.861, 895 585.930 C 887.868 586.131, 866.709 585.620, 862.208 585.138 C 860.735 584.981, 861.547 570.258, 863.124 568.550 C 863.606 568.027, 864 565.038, 864 561.907 C 864 557.769, 864.410 556.057, 865.500 555.638 C 866.598 555.217, 867 553.488, 867 549.191 C 867 545.962, 867.871 539.914, 868.936 535.751 C 870 531.589, 870.833 526.826, 870.786 525.167 C 870.739 523.509, 871.440 520.592, 872.345 518.686 C 873.249 516.780, 874.481 511.690, 875.081 507.376 C 875.681 503.061, 876.371 499.209, 876.614 498.816 C 877.831 496.846, 880.800 482.934, 880.707 479.637 C 880.648 477.563, 881.053 475.558, 881.607 475.183 C 883.344 474.005, 885.136 468.426, 885.322 463.620 C 885.443 460.482, 885.936 459, 886.858 459 C 887.801 459, 888.028 458.249, 887.601 456.545 C 887.209 454.984, 887.741 452.639, 889.065 450.101 C 890.208 447.906, 891.060 445.298, 890.957 444.305 C 890.570 440.578, 891.043 438.100, 892.400 436.743 C 893.170 435.973, 893.800 433.680, 893.800 431.649 C 893.800 429.617, 894.520 426.855, 895.400 425.512 C 896.280 424.169, 897 421.923, 897 420.522 C 897 419.120, 897.397 417.191, 897.883 416.236 C 899.836 412.397, 900.912 409.244, 902.059 404 C 902.721 400.975, 903.594 398.050, 904 397.500 C 904.406 396.950, 905.306 394.080, 905.999 391.122 C 906.920 387.196, 907.803 385.603, 909.269 385.219 C 910.373 384.931, 913.264 383.638, 915.691 382.347 C 918.119 381.056, 920.757 380, 921.553 380 C 922.349 380, 923 379.556, 923 379.013 C 923 378.471, 924.575 377.369, 926.500 376.564 C 928.425 375.760, 930 374.897, 930 374.646 C 930 373.068, 920.608 369, 916.965 369 C 913.834 369, 912.918 368.656, 913.313 367.628 C 913.602 366.873, 914.797 362.935, 915.967 358.878 C 917.137 354.820, 918.455 350.600, 918.897 349.500 C 919.338 348.400, 920.916 343.675, 922.402 339 C 923.888 334.325, 925.487 329.600, 925.955 328.500 C 926.423 327.400, 928.217 322.225, 929.942 317 C 931.668 311.775, 933.463 306.600, 933.931 305.500 C 934.400 304.400, 936.596 298.775, 938.811 293 C 946.354 273.333, 951.857 259.520, 958.531 243.500 C 967.410 222.184, 969.262 216.327, 968.490 212 C 967.566 206.824, 963.842 201.794, 959.049 199.250 C 954.004 196.571, 954.786 196.643, 952.751 198.677 M 557.459 220.066 C 557.142 220.580, 555.852 221, 554.593 221 C 545.636 221, 522.597 259.535, 507.831 299.216 C 500.017 320.212, 498.766 323.691, 498.017 326.500 C 497.577 328.150, 495.540 334.675, 493.490 341 C 491.440 347.325, 489.396 354.075, 488.948 356 C 488.500 357.925, 487.691 361.075, 487.151 363 C 483.288 376.770, 482.068 381.415, 480.521 388.250 L 478.766 396 474.995 392.115 C 466.259 383.113, 450.207 384.188, 434.782 394.808 C 415.443 408.124, 391.621 444.416, 381.489 476 C 375.958 493.241, 375.440 494.415, 368.097 506.406 C 354.391 528.784, 349.716 535.340, 340.368 545.293 C 330.353 555.954, 326 558.124, 326 552.452 C 326 551.168, 325.622 549.885, 325.161 549.600 C 323.382 548.500, 329.310 516.276, 333.826 502.500 C 334.367 500.850, 336.693 493.425, 338.994 486 C 341.296 478.575, 344.075 470.025, 345.170 467 C 346.265 463.975, 347.539 460.150, 348 458.500 C 348.462 456.850, 352.014 446.266, 355.894 434.981 C 364.034 411.307, 364.161 409.356, 357.986 402.864 C 355.547 400.300, 353.725 399.168, 352.682 399.569 C 351.808 399.904, 350.143 399.513, 348.982 398.700 C 346.945 397.273, 343.997 397.629, 339.183 399.883 C 335.628 401.548, 316.463 444.667, 310.018 465.500 C 308.827 469.350, 307.487 473.400, 307.040 474.500 C 305.957 477.167, 304.410 482.985, 302.519 491.500 C 301.005 498.315, 300.365 500.921, 298.031 509.778 C 296.428 515.858, 295.903 538.878, 297.199 546.267 C 298.372 552.955, 303.576 563.845, 307.647 568.131 C 314.598 575.450, 327.204 578.891, 333.288 575.131 C 341.767 569.891, 363.083 542.823, 372.767 525 C 375.225 520.476, 376 520.406, 376 524.710 C 376 530.257, 381.444 546.582, 384.731 550.892 C 389.972 557.763, 401.689 565.928, 404.138 564.415 C 404.660 564.092, 405.757 564.384, 406.576 565.063 C 411.184 568.888, 426.893 556.299, 437.229 540.500 C 444.254 529.761, 459.994 498.815, 460.015 495.699 C 460.024 494.490, 460.414 492.896, 460.882 492.157 C 461.378 491.374, 461.969 498.677, 462.297 509.657 C 462.607 520.021, 463.319 530.075, 463.879 532 C 464.439 533.925, 465.747 538.480, 466.787 542.123 C 470.497 555.122, 479.154 568.112, 488.297 574.399 C 496.674 580.158, 508.862 581.985, 513.889 578.235 C 518.133 575.070, 517.859 573.075, 513.265 573.691 C 510.478 574.065, 509.050 573.765, 508.086 572.604 C 507.354 571.722, 506.188 571, 505.495 571 C 503.511 571, 496.377 563.352, 495.007 559.756 C 494.324 557.965, 493.143 555.082, 492.383 553.349 C 491.622 551.616, 491 549.118, 491 547.799 C 491 546.479, 490.561 544.961, 490.025 544.425 C 487.721 542.121, 487.673 516.118, 489.938 497.500 C 491.823 482.006, 492.792 476.323, 495.564 464.500 C 495.822 463.400, 497.361 456.366, 498.984 448.869 C 500.607 441.372, 502.384 434.172, 502.933 432.869 C 503.483 431.566, 505.328 425.775, 507.034 420 C 508.740 414.225, 510.536 408.600, 511.026 407.500 C 511.516 406.400, 512.415 403.475, 513.023 401 C 514.343 395.633, 516.871 388.687, 520.483 380.500 C 521.939 377.200, 524.106 372.250, 525.299 369.500 C 526.492 366.750, 533.405 352.575, 540.661 338 C 554.990 309.219, 556.871 305.148, 563.659 288.229 C 572.148 267.074, 576.059 251.714, 576.321 238.500 C 576.573 225.843, 572.992 221.205, 561.768 219.649 C 559.716 219.364, 557.777 219.552, 557.459 220.066 M 561.828 246.744 C 561.007 247.710, 559.621 250.075, 558.748 252 C 557.875 253.925, 555.509 259.100, 553.491 263.500 C 545.012 281.985, 527.221 332.814, 524.593 346.059 C 524.436 346.851, 523.773 348.806, 523.121 350.401 C 522.468 351.997, 522.122 353.797, 522.351 354.401 C 522.580 355.006, 523.104 354.600, 523.515 353.500 C 523.927 352.400, 526.642 346.550, 529.549 340.500 C 545.722 306.844, 557.849 275.055, 561.050 257.926 C 561.710 254.392, 562.646 250.190, 563.130 248.588 C 564.208 245.018, 563.794 244.432, 561.828 246.744 M 366.258 325.653 C 362.920 326.373, 358.703 331.076, 355.495 337.654 C 350.231 348.453, 350.502 347.118, 351.257 358.522 C 351.713 365.412, 354.158 370, 357.374 370 C 358.554 370, 360.085 370.907, 360.778 372.016 C 361.964 373.915, 362.212 373.941, 365.062 372.468 C 366.726 371.608, 368.564 369.857, 369.147 368.577 C 369.730 367.298, 372.194 364.590, 374.622 362.560 C 382.017 356.378, 389.609 338.932, 386.945 334.242 C 383.121 327.508, 374.416 323.894, 366.258 325.653 M 709.907 390.250 C 708.199 392.587, 706.401 395.527, 705.913 396.782 C 702.952 404.393, 713.678 422.555, 719.126 419.154 C 720.142 418.519, 721.703 418, 722.595 418 C 723.851 418, 724.066 417.401, 723.550 415.345 C 723.156 413.773, 723.337 412.410, 723.993 412.004 C 725.770 410.906, 725.381 399.623, 723.418 395.321 C 721.170 390.391, 717.118 386, 714.819 386 C 713.826 386, 711.615 387.913, 709.907 390.250 M 599.005 396.177 C 591.263 404.028, 580.072 421.633, 571.719 439.100 C 563.656 455.962, 559.498 465.832, 560.174 466.508 C 560.414 466.748, 562.836 465.415, 565.555 463.546 C 584.986 450.194, 605.398 416.727, 606.173 396.949 C 606.430 390.389, 604.878 390.222, 599.005 396.177 M 277.475 397.175 C 277.086 398.454, 275.695 400.932, 274.384 402.683 C 273.073 404.434, 272 406.406, 272 407.065 C 272 407.725, 271.063 409.780, 269.918 411.632 C 268.774 413.484, 268.211 414.995, 268.668 414.989 C 269.126 414.982, 270.375 413.070, 271.444 410.739 C 272.514 408.407, 274.129 405.600, 275.033 404.500 C 277.069 402.022, 279.460 396.126, 278.726 395.393 C 278.427 395.094, 277.864 395.896, 277.475 397.175 M 457.388 416.251 C 440.556 433.859, 421.459 470.251, 415.511 496.055 C 414.567 500.150, 413.366 504.931, 412.843 506.679 C 412.320 508.428, 411.699 512.253, 411.463 515.179 C 409.842 535.273, 409.780 537.746, 410.875 538.423 C 415.722 541.419, 436.254 512.953, 450.585 483.368 C 453.563 477.220, 456 471.935, 456 471.624 C 456 471.314, 457.098 468.659, 458.440 465.724 C 461.583 458.853, 466.352 444.429, 468.434 435.500 C 469.331 431.650, 470.469 426.925, 470.963 425 C 473.589 414.752, 473.306 405.846, 470.475 409.690 C 469.215 411.401, 469.106 411.405, 468.464 409.750 C 467.289 406.719, 465.492 407.773, 457.388 416.251 M 687.149 424.883 C 670.692 462.387, 664.749 481.681, 662.516 504.848 C 661.814 512.137, 664.328 520.737, 667.598 522.226 C 676.629 526.341, 701.857 491.584, 714.217 458 C 721.398 438.486, 721.576 437.007, 716.750 436.985 C 707.690 436.943, 698.060 430.665, 692.817 421.383 L 690.491 417.266 687.149 424.883 M 251.994 446.250 C 251.990 446.938, 251.342 448.738, 250.553 450.250 C 249.764 451.762, 249.498 453, 249.961 453 C 250.425 453, 251.382 451.538, 252.087 449.750 C 252.793 447.962, 253.549 446.163, 253.768 445.750 C 253.987 445.337, 253.679 445, 253.083 445 C 252.488 445, 251.997 445.563, 251.994 446.250 M 865.547 467.250 C 865.332 467.938, 864.887 470.300, 864.557 472.500 C 863.805 477.531, 865.459 475.085, 866.417 469.750 C 867.045 466.253, 866.420 464.456, 865.547 467.250 M 1133.894 470.270 C 1131.477 472.069, 1127.513 474.881, 1125.085 476.520 C 1113.244 484.512, 1095.441 502.475, 1091.695 510.210 C 1088.891 516, 1092.526 520.331, 1097.870 517.567 C 1104.633 514.070, 1122.903 493.645, 1128.107 483.763 C 1128.763 482.519, 1129.608 481.275, 1129.986 481 C 1130.364 480.725, 1131.948 478.250, 1133.506 475.500 C 1135.064 472.750, 1137.007 469.712, 1137.824 468.750 C 1140.041 466.139, 1138.800 466.619, 1133.894 470.270 M 969.371 484.750 C 963.357 493.893, 962.712 495, 963.404 495 C 964.169 495, 972.298 482.962, 973.702 479.750 C 975.500 475.635, 974.947 476.273, 969.371 484.750 M 627.273 484.955 C 622.659 491.641, 621.023 495.492, 623.091 494.803 C 623.806 494.565, 624.687 493.261, 625.050 491.906 C 625.412 490.551, 627.124 487.893, 628.854 485.998 C 631.398 483.214, 633.106 479, 631.691 479 C 631.521 479, 629.533 481.680, 627.273 484.955 M 860 494.071 C 860 494.661, 859.325 495.818, 858.500 496.643 C 856.461 498.681, 856.606 500.899, 858.750 500.488 C 859.712 500.304, 860.725 500.112, 861 500.061 C 861.275 500.011, 860.880 499.577, 860.122 499.096 C 859.364 498.616, 859.058 497.716, 859.441 497.095 C 859.824 496.475, 860.557 496.226, 861.069 496.543 C 861.581 496.859, 862 496.191, 862 495.059 C 862 493.927, 861.550 493, 861 493 C 860.450 493, 860 493.482, 860 494.071 M 616.860 499.250 C 615.040 501.587, 613.090 503.831, 612.526 504.235 C 611.864 504.709, 611.855 504.983, 612.500 505.007 C 613.050 505.028, 612.382 505.904, 611.015 506.954 C 609.648 508.004, 608.885 509.218, 609.319 509.653 C 609.754 510.087, 610.422 509.970, 610.804 509.392 C 611.187 508.815, 613.128 506.353, 615.118 503.921 C 618.686 499.560, 621.498 495, 620.619 495 C 620.371 495, 618.679 496.913, 616.860 499.250 M 958.052 501.923 C 955.783 505.265, 954.153 508, 954.431 508 C 955.319 508, 963.198 496.865, 962.679 496.345 C 962.404 496.071, 960.322 498.581, 958.052 501.923 M 855.250 505.627 C 854.013 507.025, 853.014 508.694, 853.030 509.335 C 853.047 509.976, 853.557 509.645, 854.164 508.601 C 855.227 506.770, 855.328 506.784, 856.983 508.978 L 858.700 511.254 859.257 509.126 C 859.563 507.955, 859.436 507.230, 858.975 507.516 C 858.514 507.801, 857.993 506.920, 857.818 505.559 L 857.500 503.084 855.250 505.627 M 370.783 516.001 C 369.371 518.742, 368.624 520.733, 369.122 520.425 C 370.281 519.708, 374.269 511.935, 373.745 511.412 C 373.529 511.195, 372.196 513.260, 370.783 516.001 M 855.898 516.623 C 854.531 518.270, 851.124 530.724, 851.042 534.372 C 850.943 538.804, 853.849 533.593, 855.034 527.216 C 855.721 523.522, 856.681 519.425, 857.169 518.111 C 858.283 515.112, 857.709 514.441, 855.898 516.623 M 858.870 527.667 C 858.798 529.225, 858.603 532.862, 858.437 535.750 C 858.270 538.638, 858.340 541, 858.592 541 C 860.882 541, 862.415 525.972, 860.200 525.233 C 859.472 524.991, 858.949 525.948, 858.870 527.667 M 849.284 544.417 C 849.412 547.718, 850 550.170, 850.731 550.450 C 851.643 550.800, 851.857 549.453, 851.560 545.237 C 851.028 537.708, 848.995 536.975, 849.284 544.417 M 856.695 544.639 C 856.313 545.021, 856 547.032, 856 549.108 C 856 551.184, 855.632 553.109, 855.183 553.387 C 854.733 553.665, 853.781 558.810, 853.066 564.822 C 851.984 573.923, 851.493 575.713, 850.133 575.519 C 849.235 575.392, 849.084 575.485, 849.799 575.726 C 850.742 576.045, 850.916 577.376, 850.435 580.583 C 849.801 584.810, 849.881 585, 852.286 585 C 854.666 585, 854.807 584.692, 854.923 579.250 C 854.990 576.087, 855.259 572.150, 855.519 570.500 C 855.780 568.850, 856.390 565.025, 856.876 562 C 857.362 558.975, 858.092 554.418, 858.499 551.874 C 859.208 547.437, 858.147 543.186, 856.695 544.639 M 846.008 554.986 C 845.308 556.293, 845.133 558.265, 845.576 559.843 C 846.770 564.099, 846.967 569, 845.943 569 C 845.424 569, 845 568.325, 845 567.500 C 845 566.675, 844.623 566, 844.163 566 C 843.021 566, 842.839 583.141, 843.963 584.948 C 845.010 586.633, 845.358 585.454, 847.048 574.500 C 849.092 561.247, 849.245 559, 848.101 559 C 846.585 559, 846.709 556.274, 848.250 555.708 C 849.199 555.360, 849.221 554.953, 848.343 554.018 C 847.437 553.053, 846.929 553.264, 846.008 554.986 M 797 586.499 C 797 587.823, 798.099 588.041, 803.509 587.796 C 811.941 587.413, 811.943 585.587, 803.511 585.204 C 798.099 584.958, 797 585.176, 797 586.499 M 816.667 585.667 C 815.122 587.211, 816.310 587.714, 821.500 587.714 C 827.806 587.714, 828.783 586.556, 823.250 585.642 C 818.446 584.848, 817.482 584.851, 816.667 585.667 M 850 591 C 850 592.111, 850.667 593, 851.500 593 C 852.333 593, 853 592.111, 853 591 C 853 589.889, 852.333 589, 851.500 589 C 850.667 589, 850 589.889, 850 591 M 734 593.138 C 730.975 593.627, 722.875 594.422, 716 594.905 C 709.125 595.388, 700.800 596.340, 697.500 597.022 C 688.578 598.864, 688.497 598.897, 689.790 600.190 C 690.624 601.024, 691.312 600.986, 692.445 600.046 C 693.286 599.348, 694.600 599.016, 695.365 599.310 C 696.130 599.604, 697.149 599.480, 697.628 599.036 C 698.108 598.592, 703.450 597.908, 709.500 597.516 C 721.729 596.725, 723.656 596.523, 733 595.059 C 736.575 594.499, 739.837 594.031, 740.250 594.020 C 740.663 594.009, 741 593.550, 741 593 C 741 592.450, 740.663 592.056, 740.250 592.125 C 739.837 592.193, 737.025 592.649, 734 593.138 M 798.078 592.923 C 794.546 593.240, 791.489 594.009, 791.285 594.630 C 790.838 595.990, 805.829 595.386, 807.529 593.976 C 808.120 593.485, 809.593 593.342, 810.802 593.658 C 812.097 593.997, 813 593.774, 813 593.117 C 813 591.948, 809.435 591.901, 798.078 592.923 M 756.500 595.757 C 749.906 596.179, 746 597.033, 746 598.051 C 746 599.640, 778.507 598.324, 781.768 596.604 C 784.270 595.284, 783.491 595.177, 772.500 595.331 C 765.900 595.424, 758.700 595.615, 756.500 595.757 M 741.461 597.006 C 740.340 597.431, 736.290 598.073, 732.461 598.433 C 728.633 598.792, 723.250 599.296, 720.500 599.553 C 710.140 600.520, 693.886 603.434, 695.565 604.023 C 696.526 604.360, 699.379 604.270, 701.906 603.824 C 704.433 603.377, 711.450 602.739, 717.500 602.406 C 723.550 602.073, 729.258 601.395, 730.184 600.900 C 731.111 600.405, 734.093 600, 736.812 600 C 740.021 600, 742.199 599.465, 743.020 598.476 C 744.623 596.544, 744.066 596.018, 741.461 597.006 M 867.638 597.276 C 864.989 599.212, 867.539 600.994, 872.563 600.717 C 875.684 600.545, 876.561 600.075, 876.794 598.448 C 877.154 595.931, 870.621 595.094, 867.638 597.276 M 679 600 C 677.625 600.440, 674.287 600.845, 671.582 600.900 C 664.485 601.044, 654 603.032, 654 604.233 C 654 604.869, 655.432 605.017, 657.750 604.620 C 666.116 603.188, 680 602.688, 680 603.818 C 680 604.433, 680.701 604.668, 681.557 604.340 C 682.414 604.011, 682.884 603.139, 682.601 602.403 C 682.319 601.667, 682.479 600.822, 682.958 600.526 C 683.437 600.230, 684.007 600.521, 684.225 601.174 C 684.687 602.562, 688 601.559, 688 600.031 C 688 598.842, 682.673 598.824, 679 600 M 994.768 601.090 C 995.465 601.830, 997.040 602.488, 998.268 602.551 C 999.495 602.615, 1001.479 602.987, 1002.675 603.377 C 1003.871 603.768, 1009.046 604.511, 1014.175 605.030 C 1023.122 605.934, 1029.339 607.042, 1044.431 610.420 C 1048.243 611.273, 1051.581 611.753, 1051.848 611.486 C 1052.552 610.781, 1052.164 610.622, 1045 608.669 C 1032.857 605.359, 1028.592 604.568, 1010 602.175 C 1005.875 601.644, 1000.475 600.880, 998 600.477 C 994.250 599.866, 993.711 599.969, 994.768 601.090 M 840.643 604.513 C 840.963 605.345, 840.611 606.768, 839.862 607.675 C 838.798 608.964, 838.773 609.417, 839.750 609.746 C 840.438 609.977, 841 610.606, 841 611.142 C 841 611.679, 840.502 611.810, 839.893 611.434 C 839.128 610.961, 838.989 611.675, 839.445 613.748 C 839.915 615.890, 839.694 616.903, 838.672 617.296 C 837.246 617.843, 837.642 622.864, 839.452 627.173 C 839.897 628.233, 839.433 629.567, 838.184 630.816 C 836.552 632.448, 836.439 633.018, 837.528 634.143 C 839.844 636.534, 839.804 642, 837.470 642 C 836.255 642, 836.405 642.629, 838.196 645.051 C 839.964 647.443, 840.168 648.278, 839.141 648.913 C 837.730 649.785, 837.713 650.596, 839.052 653.097 C 839.547 654.022, 839.502 655.098, 838.946 655.654 C 838.333 656.267, 838.660 658, 839.854 660.455 L 841.722 664.295 842.316 660.898 C 842.643 659.029, 842.519 655.475, 842.042 653 C 841.509 650.237, 841.546 648.052, 842.136 647.339 C 842.758 646.587, 842.722 645.946, 842.032 645.520 C 841.447 645.158, 841.217 644.458, 841.522 643.964 C 841.827 643.471, 842.333 636.189, 842.645 627.784 C 843.631 601.292, 843.691 603, 841.781 603 C 840.658 603, 840.264 603.524, 840.643 604.513 M 643.055 605.169 C 641.160 605.713, 638.524 605.951, 637.199 605.698 C 635.873 605.444, 632.473 605.853, 629.644 606.607 C 626.815 607.360, 623.263 607.982, 621.750 607.988 C 620.237 607.995, 619 608.499, 619 609.108 C 619 609.750, 619.947 609.991, 621.250 609.680 C 626.066 608.532, 633.735 607.669, 638.768 607.709 C 641.665 607.732, 644.279 607.357, 644.577 606.876 C 644.874 606.394, 646.640 606, 648.500 606 C 650.360 606, 652.160 605.550, 652.500 605 C 653.281 603.737, 647.697 603.837, 643.055 605.169 M 840 668.886 C 840 670.473, 840.672 673.060, 841.494 674.636 C 842.315 676.211, 843.006 678.175, 843.029 679 C 843.081 680.850, 845.915 685.967, 845.965 684.299 C 845.984 683.638, 845.274 680.488, 844.388 677.299 C 843.501 674.109, 842.550 670.263, 842.274 668.750 C 841.613 665.120, 840 665.216, 840 668.886 M 853 681.441 C 853 682.298, 852.608 683, 852.129 683 C 850.861 683, 852.723 691.928, 854.584 694.768 C 856.697 697.993, 857.170 697.201, 855.894 692.577 C 855.315 690.482, 855.111 687.694, 855.440 686.384 C 855.769 685.073, 855.594 684, 855.050 684 C 854.507 684, 854.304 683.371, 854.600 682.601 C 854.895 681.832, 854.656 680.905, 854.068 680.542 C 853.481 680.179, 853 680.584, 853 681.441" stroke="none" fill="#000" fill-rule="evenodd"/>
</svg>